<mxfile host="Electron" modified="2024-03-29T01:27:10.112Z" agent="Mozilla/5.0 (Windows NT 10.0; Win64; x64) AppleWebKit/537.36 (KHTML, like Gecko) draw.io/24.1.0 Chrome/120.0.6099.109 Electron/28.1.0 Safari/537.36" etag="CK42S9mgtzJFW00D9-SX" version="24.1.0" type="device">
  <diagram name="Page-1" id="eGnRSX-BdF70KafMSX82">
    <mxGraphModel dx="1084" dy="951" grid="1" gridSize="10" guides="1" tooltips="1" connect="1" arrows="1" fold="1" page="1" pageScale="1" pageWidth="850" pageHeight="1100" math="0" shadow="0">
      <root>
        <mxCell id="0" />
        <mxCell id="1" parent="0" />
        <mxCell id="aKWGnZ_UCuL-Iv-LWD_8-1" style="edgeStyle=orthogonalEdgeStyle;rounded=0;orthogonalLoop=1;jettySize=auto;html=1;entryX=0;entryY=0.5;entryDx=0;entryDy=0;" parent="1" source="aKWGnZ_UCuL-Iv-LWD_8-2" target="aKWGnZ_UCuL-Iv-LWD_8-6" edge="1">
          <mxGeometry relative="1" as="geometry" />
        </mxCell>
        <mxCell id="aKWGnZ_UCuL-Iv-LWD_8-2" value="Monolithic" style="rounded=0;whiteSpace=wrap;html=1;fillColor=#dae8fc;strokeColor=#6c8ebf;" parent="1" vertex="1">
          <mxGeometry x="150" y="340" width="120" height="60" as="geometry" />
        </mxCell>
        <mxCell id="aKWGnZ_UCuL-Iv-LWD_8-3" style="edgeStyle=orthogonalEdgeStyle;rounded=0;orthogonalLoop=1;jettySize=auto;html=1;entryX=0;entryY=0.5;entryDx=0;entryDy=0;" parent="1" source="aKWGnZ_UCuL-Iv-LWD_8-4" target="aKWGnZ_UCuL-Iv-LWD_8-7" edge="1">
          <mxGeometry relative="1" as="geometry" />
        </mxCell>
        <mxCell id="aKWGnZ_UCuL-Iv-LWD_8-4" value="Microservices" style="rounded=0;whiteSpace=wrap;html=1;fillColor=#ffe6cc;strokeColor=#d79b00;" parent="1" vertex="1">
          <mxGeometry x="552.5" y="340" width="227.5" height="60" as="geometry" />
        </mxCell>
        <mxCell id="aKWGnZ_UCuL-Iv-LWD_8-5" style="edgeStyle=orthogonalEdgeStyle;rounded=0;orthogonalLoop=1;jettySize=auto;html=1;entryX=0;entryY=0.5;entryDx=0;entryDy=0;" parent="1" source="aKWGnZ_UCuL-Iv-LWD_8-6" target="aKWGnZ_UCuL-Iv-LWD_8-4" edge="1">
          <mxGeometry relative="1" as="geometry" />
        </mxCell>
        <mxCell id="aKWGnZ_UCuL-Iv-LWD_8-6" value="Modular Monolithic" style="rounded=0;whiteSpace=wrap;html=1;fillColor=#fff2cc;strokeColor=#d6b656;" parent="1" vertex="1">
          <mxGeometry x="310" y="340" width="200" height="60" as="geometry" />
        </mxCell>
        <mxCell id="aKWGnZ_UCuL-Iv-LWD_8-7" value="Serverless" style="rounded=0;whiteSpace=wrap;html=1;fillColor=#e1d5e7;strokeColor=#9673a6;" parent="1" vertex="1">
          <mxGeometry x="820" y="340" width="340" height="60" as="geometry" />
        </mxCell>
        <mxCell id="LyC5pqZZlVVMVhW_L-fi-1" value="Application" style="rounded=0;whiteSpace=wrap;html=1;" vertex="1" parent="1">
          <mxGeometry x="150" y="450" width="120" height="140" as="geometry" />
        </mxCell>
        <mxCell id="LyC5pqZZlVVMVhW_L-fi-2" value="DB" style="shape=cylinder3;whiteSpace=wrap;html=1;boundedLbl=1;backgroundOutline=1;size=15;" vertex="1" parent="1">
          <mxGeometry x="180" y="600" width="60" height="80" as="geometry" />
        </mxCell>
        <mxCell id="LyC5pqZZlVVMVhW_L-fi-4" value="Service" style="rounded=0;whiteSpace=wrap;html=1;" vertex="1" parent="1">
          <mxGeometry x="310" y="450" width="200" height="60" as="geometry" />
        </mxCell>
        <mxCell id="LyC5pqZZlVVMVhW_L-fi-5" value="&lt;span style=&quot;text-wrap: wrap; font-size: 14px;&quot;&gt;Monolithic&lt;/span&gt;" style="text;html=1;align=center;verticalAlign=middle;resizable=0;points=[];autosize=1;strokeColor=none;fillColor=none;fontStyle=1;fontSize=14;" vertex="1" parent="1">
          <mxGeometry x="165" y="410" width="90" height="30" as="geometry" />
        </mxCell>
        <mxCell id="LyC5pqZZlVVMVhW_L-fi-6" value="Service" style="rounded=0;whiteSpace=wrap;html=1;" vertex="1" parent="1">
          <mxGeometry x="310" y="530" width="90" height="60" as="geometry" />
        </mxCell>
        <mxCell id="LyC5pqZZlVVMVhW_L-fi-7" value="Service" style="rounded=0;whiteSpace=wrap;html=1;" vertex="1" parent="1">
          <mxGeometry x="420" y="530" width="90" height="60" as="geometry" />
        </mxCell>
        <mxCell id="LyC5pqZZlVVMVhW_L-fi-8" value="Macroservices (SOA)" style="text;html=1;align=center;verticalAlign=middle;resizable=0;points=[];autosize=1;strokeColor=none;fillColor=none;fontStyle=1;fontSize=14;" vertex="1" parent="1">
          <mxGeometry x="330" y="410" width="160" height="30" as="geometry" />
        </mxCell>
        <mxCell id="LyC5pqZZlVVMVhW_L-fi-9" value="DB" style="shape=cylinder3;whiteSpace=wrap;html=1;boundedLbl=1;backgroundOutline=1;size=15;" vertex="1" parent="1">
          <mxGeometry x="310" y="600" width="60" height="80" as="geometry" />
        </mxCell>
        <mxCell id="LyC5pqZZlVVMVhW_L-fi-10" value="DB" style="shape=cylinder3;whiteSpace=wrap;html=1;boundedLbl=1;backgroundOutline=1;size=15;" vertex="1" parent="1">
          <mxGeometry x="380" y="600" width="60" height="80" as="geometry" />
        </mxCell>
        <mxCell id="LyC5pqZZlVVMVhW_L-fi-11" value="DB" style="shape=cylinder3;whiteSpace=wrap;html=1;boundedLbl=1;backgroundOutline=1;size=15;" vertex="1" parent="1">
          <mxGeometry x="450" y="600" width="60" height="80" as="geometry" />
        </mxCell>
        <mxCell id="LyC5pqZZlVVMVhW_L-fi-12" value="Service" style="rounded=0;whiteSpace=wrap;html=1;" vertex="1" parent="1">
          <mxGeometry x="550" y="450" width="50" height="60" as="geometry" />
        </mxCell>
        <mxCell id="LyC5pqZZlVVMVhW_L-fi-13" value="Service" style="rounded=0;whiteSpace=wrap;html=1;" vertex="1" parent="1">
          <mxGeometry x="610" y="450" width="50" height="60" as="geometry" />
        </mxCell>
        <mxCell id="LyC5pqZZlVVMVhW_L-fi-14" value="Service" style="rounded=0;whiteSpace=wrap;html=1;" vertex="1" parent="1">
          <mxGeometry x="670" y="450" width="50" height="60" as="geometry" />
        </mxCell>
        <mxCell id="LyC5pqZZlVVMVhW_L-fi-15" value="Service" style="rounded=0;whiteSpace=wrap;html=1;" vertex="1" parent="1">
          <mxGeometry x="730" y="450" width="50" height="60" as="geometry" />
        </mxCell>
        <mxCell id="LyC5pqZZlVVMVhW_L-fi-16" value="Service" style="rounded=0;whiteSpace=wrap;html=1;" vertex="1" parent="1">
          <mxGeometry x="550" y="530" width="50" height="60" as="geometry" />
        </mxCell>
        <mxCell id="LyC5pqZZlVVMVhW_L-fi-17" value="Service" style="rounded=0;whiteSpace=wrap;html=1;" vertex="1" parent="1">
          <mxGeometry x="610" y="530" width="50" height="60" as="geometry" />
        </mxCell>
        <mxCell id="LyC5pqZZlVVMVhW_L-fi-18" value="Service" style="rounded=0;whiteSpace=wrap;html=1;" vertex="1" parent="1">
          <mxGeometry x="670" y="530" width="50" height="60" as="geometry" />
        </mxCell>
        <mxCell id="LyC5pqZZlVVMVhW_L-fi-19" value="Service" style="rounded=0;whiteSpace=wrap;html=1;" vertex="1" parent="1">
          <mxGeometry x="730" y="530" width="50" height="60" as="geometry" />
        </mxCell>
        <mxCell id="LyC5pqZZlVVMVhW_L-fi-20" value="DB" style="shape=cylinder3;whiteSpace=wrap;html=1;boundedLbl=1;backgroundOutline=1;size=15;" vertex="1" parent="1">
          <mxGeometry x="552.5" y="610" width="45" height="60" as="geometry" />
        </mxCell>
        <mxCell id="LyC5pqZZlVVMVhW_L-fi-21" value="DB" style="shape=cylinder3;whiteSpace=wrap;html=1;boundedLbl=1;backgroundOutline=1;size=15;" vertex="1" parent="1">
          <mxGeometry x="612.5" y="610" width="45" height="60" as="geometry" />
        </mxCell>
        <mxCell id="LyC5pqZZlVVMVhW_L-fi-22" value="DB" style="shape=cylinder3;whiteSpace=wrap;html=1;boundedLbl=1;backgroundOutline=1;size=15;" vertex="1" parent="1">
          <mxGeometry x="672.5" y="610" width="45" height="60" as="geometry" />
        </mxCell>
        <mxCell id="LyC5pqZZlVVMVhW_L-fi-23" value="DB" style="shape=cylinder3;whiteSpace=wrap;html=1;boundedLbl=1;backgroundOutline=1;size=15;" vertex="1" parent="1">
          <mxGeometry x="732.5" y="610" width="45" height="60" as="geometry" />
        </mxCell>
        <mxCell id="LyC5pqZZlVVMVhW_L-fi-24" value="Microservices" style="text;html=1;align=center;verticalAlign=middle;resizable=0;points=[];autosize=1;strokeColor=none;fillColor=none;fontStyle=1;fontSize=14;" vertex="1" parent="1">
          <mxGeometry x="615" y="410" width="110" height="30" as="geometry" />
        </mxCell>
        <mxCell id="LyC5pqZZlVVMVhW_L-fi-25" value="DB" style="shape=cylinder3;whiteSpace=wrap;html=1;boundedLbl=1;backgroundOutline=1;size=15;" vertex="1" parent="1">
          <mxGeometry x="550" y="690" width="45" height="60" as="geometry" />
        </mxCell>
        <mxCell id="LyC5pqZZlVVMVhW_L-fi-26" value="DB" style="shape=cylinder3;whiteSpace=wrap;html=1;boundedLbl=1;backgroundOutline=1;size=15;" vertex="1" parent="1">
          <mxGeometry x="610" y="690" width="45" height="60" as="geometry" />
        </mxCell>
        <mxCell id="LyC5pqZZlVVMVhW_L-fi-27" value="DB" style="shape=cylinder3;whiteSpace=wrap;html=1;boundedLbl=1;backgroundOutline=1;size=15;" vertex="1" parent="1">
          <mxGeometry x="670" y="690" width="45" height="60" as="geometry" />
        </mxCell>
        <mxCell id="LyC5pqZZlVVMVhW_L-fi-28" value="DB" style="shape=cylinder3;whiteSpace=wrap;html=1;boundedLbl=1;backgroundOutline=1;size=15;" vertex="1" parent="1">
          <mxGeometry x="730" y="690" width="45" height="60" as="geometry" />
        </mxCell>
        <mxCell id="LyC5pqZZlVVMVhW_L-fi-29" value="f" style="ellipse;whiteSpace=wrap;html=1;aspect=fixed;" vertex="1" parent="1">
          <mxGeometry x="820" y="450" width="60" height="60" as="geometry" />
        </mxCell>
        <mxCell id="LyC5pqZZlVVMVhW_L-fi-30" value="f" style="ellipse;whiteSpace=wrap;html=1;aspect=fixed;" vertex="1" parent="1">
          <mxGeometry x="890" y="450" width="60" height="60" as="geometry" />
        </mxCell>
        <mxCell id="LyC5pqZZlVVMVhW_L-fi-31" value="f" style="ellipse;whiteSpace=wrap;html=1;aspect=fixed;" vertex="1" parent="1">
          <mxGeometry x="960" y="450" width="60" height="60" as="geometry" />
        </mxCell>
        <mxCell id="LyC5pqZZlVVMVhW_L-fi-32" value="f" style="ellipse;whiteSpace=wrap;html=1;aspect=fixed;" vertex="1" parent="1">
          <mxGeometry x="1030" y="450" width="60" height="60" as="geometry" />
        </mxCell>
        <mxCell id="LyC5pqZZlVVMVhW_L-fi-33" value="f" style="ellipse;whiteSpace=wrap;html=1;aspect=fixed;" vertex="1" parent="1">
          <mxGeometry x="1100" y="450" width="60" height="60" as="geometry" />
        </mxCell>
        <mxCell id="LyC5pqZZlVVMVhW_L-fi-34" value="f" style="ellipse;whiteSpace=wrap;html=1;aspect=fixed;" vertex="1" parent="1">
          <mxGeometry x="820" y="520" width="60" height="60" as="geometry" />
        </mxCell>
        <mxCell id="LyC5pqZZlVVMVhW_L-fi-35" value="f" style="ellipse;whiteSpace=wrap;html=1;aspect=fixed;" vertex="1" parent="1">
          <mxGeometry x="890" y="520" width="60" height="60" as="geometry" />
        </mxCell>
        <mxCell id="LyC5pqZZlVVMVhW_L-fi-36" value="f" style="ellipse;whiteSpace=wrap;html=1;aspect=fixed;" vertex="1" parent="1">
          <mxGeometry x="960" y="520" width="60" height="60" as="geometry" />
        </mxCell>
        <mxCell id="LyC5pqZZlVVMVhW_L-fi-37" value="f" style="ellipse;whiteSpace=wrap;html=1;aspect=fixed;" vertex="1" parent="1">
          <mxGeometry x="1030" y="520" width="60" height="60" as="geometry" />
        </mxCell>
        <mxCell id="LyC5pqZZlVVMVhW_L-fi-38" value="f" style="ellipse;whiteSpace=wrap;html=1;aspect=fixed;" vertex="1" parent="1">
          <mxGeometry x="1100" y="520" width="60" height="60" as="geometry" />
        </mxCell>
        <mxCell id="LyC5pqZZlVVMVhW_L-fi-39" value="f" style="ellipse;whiteSpace=wrap;html=1;aspect=fixed;" vertex="1" parent="1">
          <mxGeometry x="820" y="590" width="60" height="60" as="geometry" />
        </mxCell>
        <mxCell id="LyC5pqZZlVVMVhW_L-fi-40" value="f" style="ellipse;whiteSpace=wrap;html=1;aspect=fixed;" vertex="1" parent="1">
          <mxGeometry x="890" y="590" width="60" height="60" as="geometry" />
        </mxCell>
        <mxCell id="LyC5pqZZlVVMVhW_L-fi-41" value="f" style="ellipse;whiteSpace=wrap;html=1;aspect=fixed;" vertex="1" parent="1">
          <mxGeometry x="960" y="590" width="60" height="60" as="geometry" />
        </mxCell>
        <mxCell id="LyC5pqZZlVVMVhW_L-fi-42" value="f" style="ellipse;whiteSpace=wrap;html=1;aspect=fixed;" vertex="1" parent="1">
          <mxGeometry x="1030" y="590" width="60" height="60" as="geometry" />
        </mxCell>
        <mxCell id="LyC5pqZZlVVMVhW_L-fi-43" value="f" style="ellipse;whiteSpace=wrap;html=1;aspect=fixed;" vertex="1" parent="1">
          <mxGeometry x="1100" y="590" width="60" height="60" as="geometry" />
        </mxCell>
        <mxCell id="LyC5pqZZlVVMVhW_L-fi-44" value="f" style="ellipse;whiteSpace=wrap;html=1;aspect=fixed;" vertex="1" parent="1">
          <mxGeometry x="820" y="660" width="60" height="60" as="geometry" />
        </mxCell>
        <mxCell id="LyC5pqZZlVVMVhW_L-fi-45" value="f" style="ellipse;whiteSpace=wrap;html=1;aspect=fixed;" vertex="1" parent="1">
          <mxGeometry x="890" y="660" width="60" height="60" as="geometry" />
        </mxCell>
        <mxCell id="LyC5pqZZlVVMVhW_L-fi-46" value="f" style="ellipse;whiteSpace=wrap;html=1;aspect=fixed;" vertex="1" parent="1">
          <mxGeometry x="960" y="660" width="60" height="60" as="geometry" />
        </mxCell>
        <mxCell id="LyC5pqZZlVVMVhW_L-fi-47" value="f" style="ellipse;whiteSpace=wrap;html=1;aspect=fixed;" vertex="1" parent="1">
          <mxGeometry x="1030" y="660" width="60" height="60" as="geometry" />
        </mxCell>
        <mxCell id="LyC5pqZZlVVMVhW_L-fi-48" value="f" style="ellipse;whiteSpace=wrap;html=1;aspect=fixed;" vertex="1" parent="1">
          <mxGeometry x="1100" y="660" width="60" height="60" as="geometry" />
        </mxCell>
        <mxCell id="LyC5pqZZlVVMVhW_L-fi-49" value="f" style="ellipse;whiteSpace=wrap;html=1;aspect=fixed;" vertex="1" parent="1">
          <mxGeometry x="820" y="730" width="60" height="60" as="geometry" />
        </mxCell>
        <mxCell id="LyC5pqZZlVVMVhW_L-fi-50" value="f" style="ellipse;whiteSpace=wrap;html=1;aspect=fixed;" vertex="1" parent="1">
          <mxGeometry x="890" y="730" width="60" height="60" as="geometry" />
        </mxCell>
        <mxCell id="LyC5pqZZlVVMVhW_L-fi-51" value="f" style="ellipse;whiteSpace=wrap;html=1;aspect=fixed;" vertex="1" parent="1">
          <mxGeometry x="960" y="730" width="60" height="60" as="geometry" />
        </mxCell>
        <mxCell id="LyC5pqZZlVVMVhW_L-fi-52" value="f" style="ellipse;whiteSpace=wrap;html=1;aspect=fixed;" vertex="1" parent="1">
          <mxGeometry x="1030" y="730" width="60" height="60" as="geometry" />
        </mxCell>
        <mxCell id="LyC5pqZZlVVMVhW_L-fi-53" value="f" style="ellipse;whiteSpace=wrap;html=1;aspect=fixed;" vertex="1" parent="1">
          <mxGeometry x="1100" y="730" width="60" height="60" as="geometry" />
        </mxCell>
        <mxCell id="LyC5pqZZlVVMVhW_L-fi-54" value="Nanoservices" style="text;html=1;align=center;verticalAlign=middle;resizable=0;points=[];autosize=1;strokeColor=none;fillColor=none;fontStyle=1;fontSize=14;" vertex="1" parent="1">
          <mxGeometry x="935" y="410" width="110" height="30" as="geometry" />
        </mxCell>
      </root>
    </mxGraphModel>
  </diagram>
</mxfile>
